<svg width="48" height="48" viewBox="0 0 48 48" fill="none" xmlns="http://www.w3.org/2000/svg">
<path d="M22 2V8H16L24 16L32 8H26V2H22ZM8 16V22H2V26H8V32L16 24L8 16ZM40 16L32 24L40 32V26H46V22H40V16ZM24 20C21.79 20 20 21.79 20 24C20 26.21 21.79 28 24 28C26.21 28 28 26.21 28 24C28 21.79 26.21 20 24 20ZM24 32L16 40H22V46H26V40H32L24 32Z" fill="#722380"/>
<path d="M22 2V8H16L24 16L32 8H26V2H22ZM8 16V22H2V26H8V32L16 24L8 16ZM40 16L32 24L40 32V26H46V22H40V16ZM24 20C21.79 20 20 21.79 20 24C20 26.21 21.79 28 24 28C26.21 28 28 26.21 28 24C28 21.79 26.21 20 24 20ZM24 32L16 40H22V46H26V40H32L24 32Z" fill="url(#paint0_radial)"/>
<defs>
<radialGradient id="paint0_radial" cx="0" cy="0" r="1" gradientUnits="userSpaceOnUse" gradientTransform="translate(-1.3 51.9606) rotate(-60.5818) scale(62.6439 95.0612)">
<stop stop-color="#F32D12"/>
<stop offset="1" stop-color="#F32D12" stop-opacity="0"/>
</radialGradient>
</defs>
</svg>
