<svg width="40" height="40" viewBox="0 0 40 40" fill="none" xmlns="http://www.w3.org/2000/svg">
<path d="M20 5C18.2319 5 16.5362 5.70238 15.286 6.95262C14.0357 8.20286 13.3333 9.89856 13.3333 11.6667C13.3333 13.4348 14.0357 15.1305 15.286 16.3807C16.5362 17.631 18.2319 18.3333 20 18.3333C21.7681 18.3333 23.4638 17.631 24.714 16.3807C25.9643 15.1305 26.6667 13.4348 26.6667 11.6667C26.6667 9.89856 25.9643 8.20286 24.714 6.95262C23.4638 5.70238 21.7681 5 20 5ZM14.6842 23.9876C9.98924 25.0276 5 27.3083 5 30.8333V35H35V30.8333C35 27.3083 30.0108 25.0276 25.3158 23.9876C24.0991 25.606 22.18 26.6667 20 26.6667C17.82 26.6667 15.9009 25.606 14.6842 23.9876Z" fill="#722380"/>
</svg>
