<svg width="48" height="48" viewBox="0 0 48 48" fill="none" xmlns="http://www.w3.org/2000/svg">
<path d="M24 10C20.71 10 18 12.71 18 16C18 19.29 20.71 22 24 22C27.29 22 30 19.29 30 16C30 12.71 27.29 10 24 10ZM10 14C8.93913 14 7.92172 14.4214 7.17157 15.1716C6.42143 15.9217 6 16.9391 6 18C6 19.0609 6.42143 20.0783 7.17157 20.8284C7.92172 21.5786 8.93913 22 10 22C11.0609 22 12.0783 21.5786 12.8284 20.8284C13.5786 20.0783 14 19.0609 14 18C14 16.9391 13.5786 15.9217 12.8284 15.1716C12.0783 14.4214 11.0609 14 10 14ZM24 14C25.1283 14 26 14.8717 26 16C26 17.1283 25.1283 18 24 18C22.8717 18 22 17.1283 22 16C22 14.8717 22.8717 14 24 14ZM38 14C36.9391 14 35.9217 14.4214 35.1716 15.1716C34.4214 15.9217 34 16.9391 34 18C34 19.0609 34.4214 20.0783 35.1716 20.8284C35.9217 21.5786 36.9391 22 38 22C39.0609 22 40.0783 21.5786 40.8284 20.8284C41.5786 20.0783 42 19.0609 42 18C42 16.9391 41.5786 15.9217 40.8284 15.1716C40.0783 14.4214 39.0609 14 38 14ZM10 26C5.63 26 2 27.8176 2 30.4336V34H12V38H36V36V34H46V30.4336C46 27.8176 42.37 26 38 26C35.6106 26 33.4667 26.5563 31.9922 27.4766C31.9389 27.4528 31.8937 27.4216 31.8398 27.3984C29.6696 26.4651 26.9529 26 24 26C21.0471 26 18.3304 26.4651 16.1602 27.3984C16.1063 27.4216 16.0611 27.4528 16.0078 27.4766C14.5333 26.5563 12.3894 26 10 26ZM24 30C26.5091 30 28.7936 30.4445 30.2578 31.0742C30.9899 31.3891 31.5029 31.7511 31.7539 32.0156C32.0049 32.2801 32 32.3578 32 32.4336V34H16V32.4336C16 32.3578 15.9951 32.2801 16.2461 32.0156C16.4971 31.7511 17.0101 31.3891 17.7422 31.0742C19.2064 30.4445 21.4909 30 24 30Z" fill="#722380"/>
<path d="M24 10C20.71 10 18 12.71 18 16C18 19.29 20.71 22 24 22C27.29 22 30 19.29 30 16C30 12.71 27.29 10 24 10ZM10 14C8.93913 14 7.92172 14.4214 7.17157 15.1716C6.42143 15.9217 6 16.9391 6 18C6 19.0609 6.42143 20.0783 7.17157 20.8284C7.92172 21.5786 8.93913 22 10 22C11.0609 22 12.0783 21.5786 12.8284 20.8284C13.5786 20.0783 14 19.0609 14 18C14 16.9391 13.5786 15.9217 12.8284 15.1716C12.0783 14.4214 11.0609 14 10 14ZM24 14C25.1283 14 26 14.8717 26 16C26 17.1283 25.1283 18 24 18C22.8717 18 22 17.1283 22 16C22 14.8717 22.8717 14 24 14ZM38 14C36.9391 14 35.9217 14.4214 35.1716 15.1716C34.4214 15.9217 34 16.9391 34 18C34 19.0609 34.4214 20.0783 35.1716 20.8284C35.9217 21.5786 36.9391 22 38 22C39.0609 22 40.0783 21.5786 40.8284 20.8284C41.5786 20.0783 42 19.0609 42 18C42 16.9391 41.5786 15.9217 40.8284 15.1716C40.0783 14.4214 39.0609 14 38 14ZM10 26C5.63 26 2 27.8176 2 30.4336V34H12V38H36V36V34H46V30.4336C46 27.8176 42.37 26 38 26C35.6106 26 33.4667 26.5563 31.9922 27.4766C31.9389 27.4528 31.8937 27.4216 31.8398 27.3984C29.6696 26.4651 26.9529 26 24 26C21.0471 26 18.3304 26.4651 16.1602 27.3984C16.1063 27.4216 16.0611 27.4528 16.0078 27.4766C14.5333 26.5563 12.3894 26 10 26ZM24 30C26.5091 30 28.7936 30.4445 30.2578 31.0742C30.9899 31.3891 31.5029 31.7511 31.7539 32.0156C32.0049 32.2801 32 32.3578 32 32.4336V34H16V32.4336C16 32.3578 15.9951 32.2801 16.2461 32.0156C16.4971 31.7511 17.0101 31.3891 17.7422 31.0742C19.2064 30.4445 21.4909 30 24 30Z" fill="url(#paint0_radial)"/>
<defs>
<radialGradient id="paint0_radial" cx="0" cy="0" r="1" gradientUnits="userSpaceOnUse" gradientTransform="translate(-1.3 41.7931) rotate(-48.4555) scale(46.3953 81.6796)">
<stop stop-color="#F32D12"/>
<stop offset="1" stop-color="#F32D12" stop-opacity="0"/>
</radialGradient>
</defs>
</svg>
