<svg width="48" height="48" viewBox="0 0 48 48" fill="none" xmlns="http://www.w3.org/2000/svg">
<path d="M20 6C19.4696 6.00005 18.9609 6.21078 18.5858 6.58584C18.2108 6.96091 18.0001 7.46958 18 8V16C18.0001 16.5304 18.2108 17.0391 18.5858 17.4142C18.9609 17.7892 19.4696 17.9999 20 18H22V22H12C11.4696 22.0001 10.9609 22.2108 10.5858 22.5858C10.2108 22.9609 10.0001 23.4696 10 24V30H8C7.46958 30.0001 6.96091 30.2108 6.58584 30.5858C6.21078 30.9609 6.00005 31.4696 6 32V40C6.00005 40.5304 6.21078 41.0391 6.58584 41.4142C6.96091 41.7892 7.46958 41.9999 8 42H16C16.5304 41.9999 17.0391 41.7892 17.4142 41.4142C17.7892 41.0391 17.9999 40.5304 18 40V32C17.9999 31.4696 17.7892 30.9609 17.4142 30.5858C17.0391 30.2108 16.5304 30.0001 16 30H14V26H23.6641C23.88 26.0357 24.1004 26.0357 24.3164 26H34V30H32C31.4696 30.0001 30.9609 30.2108 30.5858 30.5858C30.2108 30.9609 30.0001 31.4696 30 32V40C30.0001 40.5304 30.2108 41.0391 30.5858 41.4142C30.9609 41.7892 31.4696 41.9999 32 42H40C40.5304 41.9999 41.0391 41.7892 41.4142 41.4142C41.7892 41.0391 41.9999 40.5304 42 40V32C41.9999 31.4696 41.7892 30.9609 41.4142 30.5858C41.0391 30.2108 40.5304 30.0001 40 30H38V24C37.9999 23.4696 37.7892 22.9609 37.4142 22.5858C37.0391 22.2108 36.5304 22.0001 36 22H26V18H28C28.5304 17.9999 29.0391 17.7892 29.4142 17.4142C29.7892 17.0391 29.9999 16.5304 30 16V8C29.9999 7.46958 29.7892 6.96091 29.4142 6.58584C29.0391 6.21078 28.5304 6.00005 28 6H20ZM22 10H26V14H24.3086C24.1963 13.9812 24.0826 13.9721 23.9688 13.9727C23.8719 13.9748 23.7753 13.9839 23.6797 14H22V10ZM10 34H14V38H10V34ZM34 34H38V38H34V34Z" fill="#722380"/>
<path d="M20 6C19.4696 6.00005 18.9609 6.21078 18.5858 6.58584C18.2108 6.96091 18.0001 7.46958 18 8V16C18.0001 16.5304 18.2108 17.0391 18.5858 17.4142C18.9609 17.7892 19.4696 17.9999 20 18H22V22H12C11.4696 22.0001 10.9609 22.2108 10.5858 22.5858C10.2108 22.9609 10.0001 23.4696 10 24V30H8C7.46958 30.0001 6.96091 30.2108 6.58584 30.5858C6.21078 30.9609 6.00005 31.4696 6 32V40C6.00005 40.5304 6.21078 41.0391 6.58584 41.4142C6.96091 41.7892 7.46958 41.9999 8 42H16C16.5304 41.9999 17.0391 41.7892 17.4142 41.4142C17.7892 41.0391 17.9999 40.5304 18 40V32C17.9999 31.4696 17.7892 30.9609 17.4142 30.5858C17.0391 30.2108 16.5304 30.0001 16 30H14V26H23.6641C23.88 26.0357 24.1004 26.0357 24.3164 26H34V30H32C31.4696 30.0001 30.9609 30.2108 30.5858 30.5858C30.2108 30.9609 30.0001 31.4696 30 32V40C30.0001 40.5304 30.2108 41.0391 30.5858 41.4142C30.9609 41.7892 31.4696 41.9999 32 42H40C40.5304 41.9999 41.0391 41.7892 41.4142 41.4142C41.7892 41.0391 41.9999 40.5304 42 40V32C41.9999 31.4696 41.7892 30.9609 41.4142 30.5858C41.0391 30.2108 40.5304 30.0001 40 30H38V24C37.9999 23.4696 37.7892 22.9609 37.4142 22.5858C37.0391 22.2108 36.5304 22.0001 36 22H26V18H28C28.5304 17.9999 29.0391 17.7892 29.4142 17.4142C29.7892 17.0391 29.9999 16.5304 30 16V8C29.9999 7.46958 29.7892 6.96091 29.4142 6.58584C29.0391 6.21078 28.5304 6.00005 28 6H20ZM22 10H26V14H24.3086C24.1963 13.9812 24.0826 13.9721 23.9688 13.9727C23.8719 13.9748 23.7753 13.9839 23.6797 14H22V10ZM10 34H14V38H10V34ZM34 34H38V38H34V34Z" fill="url(#paint0_radial)"/>
<defs>
<radialGradient id="paint0_radial" cx="0" cy="0" r="1" gradientUnits="userSpaceOnUse" gradientTransform="translate(3.3 46.8768) rotate(-60.5818) scale(51.2541 77.7773)">
<stop stop-color="#F32D12"/>
<stop offset="1" stop-color="#F32D12" stop-opacity="0"/>
</radialGradient>
</defs>
</svg>
